{
  "accessors": [
    {
      "bufferView": 2,
      "componentType": 5126,
      "count": 7697,
      "max": [
        1.8046317100524902,
        1.3183201551437378,
        2.98660945892334
      ],
      "min": [
        -1.8046317100524902,
        -1.3183199167251587,
        -0.3143833875656128
      ],
      "type": "VEC3"
    },
    {
      "bufferView": 2,
      "byteOffset": 92364,
      "componentType": 5126,
      "count": 7697,
      "max": [
        0.9999935030937195,
        0.9999997615814209,
        0.9996446371078491
      ],
      "min": [
        -0.9999935030937195,
        -0.9999997615814209,
        -0.9996242523193359
      ],
      "type": "VEC3"
    },
    {
      "bufferView": 1,
      "componentType": 5126,
      "count": 7697,
      "max": [
        0.9080290794372559,
        0.9901090860366821
      ],
      "min": [
        0.0751078724861145,
        0.00565654132515192
      ],
      "type": "VEC2"
    },
    {
      "bufferView": 0,
      "componentType": 5125,
      "count": 34170,
      "type": "SCALAR"
    },
    {
      "bufferView": 2,
      "byteOffset": 184728,
      "componentType": 5126,
      "count": 58354,
      "max": [
        4.738824367523193,
        4.367404460906982,
        0.5174024105072021
      ],
      "min": [
        -4.447909832000732,
        -4.3850297927856445,
        -5.601089000701904
      ],
      "type": "VEC3"
    },
    {
      "bufferView": 2,
      "byteOffset": 884976,
      "componentType": 5126,
      "count": 58354,
      "max": [
        1.0,
        1.0,
        1.0
      ],
      "min": [
        -1.0,
        -1.0,
        -1.0
      ],
      "type": "VEC3"
    },
    {
      "bufferView": 1,
      "byteOffset": 61576,
      "componentType": 5126,
      "count": 58354,
      "max": [
        0.9337795972824097,
        0.9110888838768005
      ],
      "min": [
        0.27883288264274597,
        0.019749760627746582
      ],
      "type": "VEC2"
    },
    {
      "bufferView": 0,
      "byteOffset": 136680,
      "componentType": 5125,
      "count": 191973,
      "type": "SCALAR"
    },
    {
      "bufferView": 2,
      "byteOffset": 1585224,
      "componentType": 5126,
      "count": 2090,
      "max": [
        -2.3766047954559326,
        1.4573136568069458,
        1.4254119396209717
      ],
      "min": [
        -4.9887285232543945,
        -1.0521084070205688,
        -0.694441020488739
      ],
      "type": "VEC3"
    },
    {
      "bufferView": 2,
      "byteOffset": 1610304,
      "componentType": 5126,
      "count": 2090,
      "max": [
        0.9984978437423706,
        0.99983149766922,
        1.0
      ],
      "min": [
        -0.998880922794342,
        -0.999123752117157,
        -1.0
      ],
      "type": "VEC3"
    },
    {
      "bufferView": 1,
      "byteOffset": 528408,
      "componentType": 5126,
      "count": 2090,
      "max": [
        0.9198347330093384,
        0.9175811409950256
      ],
      "min": [
        0.6833342909812927,
        0.12297101318836212
      ],
      "type": "VEC2"
    },
    {
      "bufferView": 0,
      "byteOffset": 904572,
      "componentType": 5125,
      "count": 8934,
      "type": "SCALAR"
    },
    {
      "bufferView": 2,
      "byteOffset": 1635384,
      "componentType": 5126,
      "count": 2090,
      "max": [
        -3.99863862991333,
        2.737025022506714,
        1.0461032390594482
      ],
      "min": [
        -6.610762596130371,
        0.22760295867919922,
        -1.0737497806549072
      ],
      "type": "VEC3"
    },
    {
      "bufferView": 2,
      "byteOffset": 1660464,
      "componentType": 5126,
      "count": 2090,
      "max": [
        0.9984978437423706,
        0.99983149766922,
        1.0
      ],
      "min": [
        -0.998880922794342,
        -0.999123752117157,
        -1.0
      ],
      "type": "VEC3"
    },
    {
      "bufferView": 1,
      "byteOffset": 545128,
      "componentType": 5126,
      "count": 2090,
      "max": [
        0.9198347330093384,
        0.9175811409950256
      ],
      "min": [
        0.6833342909812927,
        0.12297101318836212
      ],
      "type": "VEC2"
    },
    {
      "bufferView": 0,
      "byteOffset": 940308,
      "componentType": 5125,
      "count": 8934,
      "type": "SCALAR"
    }
  ],
  "asset": {
    "extras": {
      "author": "Ergoni (https://sketchfab.com/Ergoni)",
      "license": "CC-BY-4.0 (http://creativecommons.org/licenses/by/4.0/)",
      "source": "https://sketchfab.com/3d-models/autumn-duxeng-ac0a43d7359c4167bbd918cbee4aea2d",
      "title": "Autumn Duxeng"
    },
    "generator": "Sketchfab-14.10.0",
    "version": "2.0"
  },
  "bufferViews": [
    {
      "buffer": 0,
      "byteLength": 976044,
      "name": "floatBufferViews",
      "target": 34963
    },
    {
      "buffer": 0,
      "byteLength": 561848,
      "byteOffset": 976044,
      "byteStride": 8,
      "name": "floatBufferViews",
      "target": 34962
    },
    {
      "buffer": 0,
      "byteLength": 1685544,
      "byteOffset": 1537892,
      "byteStride": 12,
      "name": "floatBufferViews",
      "target": 34962
    }
  ],
  "buffers": [
    {
      "byteLength": 3223436,
      "uri": "scene.bin"
    }
  ],
  "extensionsUsed": [
    "KHR_materials_unlit"
  ],
  "images": [
    {
      "uri": "textures/Autumn_baseColor.png"
    }
  ],
  "materials": [
    {
      "emissiveFactor": [
        0.6540401428545353,
        0.6540401428545353,
        0.6540401428545353
      ],
      "emissiveTexture": {
        "index": 0
      },
      "extensions": {
        "KHR_materials_unlit": {}
      },
      "name": "Autumn",
      "pbrMetallicRoughness": {
        "baseColorTexture": {
          "index": 0
        },
        "metallicFactor": 0.0
      }
    }
  ],
  "meshes": [
    {
      "name": "Drusi_Autumn_0",
      "primitives": [
        {
          "attributes": {
            "NORMAL": 1,
            "POSITION": 0,
            "TEXCOORD_0": 2
          },
          "indices": 3,
          "material": 0,
          "mode": 4
        }
      ]
    },
    {
      "name": "Base_Autumn_0",
      "primitives": [
        {
          "attributes": {
            "NORMAL": 5,
            "POSITION": 4,
            "TEXCOORD_0": 6
          },
          "indices": 7,
          "material": 0,
          "mode": 4
        }
      ]
    },
    {
      "name": "Pumpkin_1.003_Autumn_0",
      "primitives": [
        {
          "attributes": {
            "NORMAL": 9,
            "POSITION": 8,
            "TEXCOORD_0": 10
          },
          "indices": 11,
          "material": 0,
          "mode": 4
        }
      ]
    },
    {
      "name": "Pumpkin_1_Autumn_0",
      "primitives": [
        {
          "attributes": {
            "NORMAL": 13,
            "POSITION": 12,
            "TEXCOORD_0": 14
          },
          "indices": 15,
          "material": 0,
          "mode": 4
        }
      ]
    }
  ],
  "nodes": [
    {
      "children": [
        1
      ],
      "matrix": [
        1.0,
        0.0,
        0.0,
        0.0,
        0.0,
        2.220446049250313e-16,
        -1.0,
        0.0,
        0.0,
        1.0,
        2.220446049250313e-16,
        0.0,
        0.0,
        0.0,
        0.0,
        1.0
      ],
      "name": "Sketchfab_model"
    },
    {
      "children": [
        2
      ],
      "matrix": [
        0.009999999776482582,
        0.0,
        0.0,
        0.0,
        0.0,
        0.0,
        0.009999999776482582,
        0.0,
        0.0,
        -0.009999999776482582,
        0.0,
        0.0,
        0.0,
        0.0,
        0.0,
        1.0
      ],
      "name": "ddcad1fad9e4435f88c83f0f11bd5c2b.fbx"
    },
    {
      "children": [
        3,
        5,
        7,
        9
      ],
      "name": "RootNode"
    },
    {
      "children": [
        4
      ],
      "matrix": [
        100.0,
        0.0,
        0.0,
        0.0,
        0.0,
        -1.629206793918314e-05,
        -99.99999999999868,
        0.0,
        0.0,
        99.99999999999868,
        -1.629206793918314e-05,
        0.0,
        0.0,
        4.76837158203125e-05,
        0.0,
        1.0
      ],
      "name": "Drusi"
    },
    {
      "mesh": 0,
      "name": "Drusi_Autumn_0"
    },
    {
      "children": [
        6
      ],
      "matrix": [
        100.0,
        0.0,
        0.0,
        0.0,
        0.0,
        -1.629206793918314e-05,
        -99.99999999999868,
        0.0,
        0.0,
        99.99999999999868,
        -1.629206793918314e-05,
        0.0,
        0.0,
        4.76837158203125e-05,
        0.0,
        1.0
      ],
      "name": "Base"
    },
    {
      "mesh": 1,
      "name": "Base_Autumn_0"
    },
    {
      "children": [
        8
      ],
      "matrix": [
        -67.7708811479829,
        -8.709111924961813e-15,
        -3.1504859239353933,
        0.0,
        -3.150485923935384,
        5.1220848180369165e-06,
        67.77088114798269,
        0.0,
        2.3785506161726792e-07,
        67.84407043457013,
        -5.116559184984148e-06,
        0.0,
        0.0,
        5.066394805908203e-05,
        0.0,
        1.0
      ],
      "name": "Pumpkin_1.003"
    },
    {
      "mesh": 2,
      "name": "Pumpkin_1.003_Autumn_0"
    },
    {
      "children": [
        10
      ],
      "matrix": [
        -42.578007862372566,
        -7.480939721250172e-15,
        -14.319856244877565,
        0.0,
        -14.319856244877526,
        3.3914821673557147e-06,
        42.57800786237245,
        0.0,
        1.0811187902096774e-06,
        44.921531677245966,
        -3.214549363789831e-06,
        0.0,
        2.384185791015625e-05,
        4.9173831939697266e-05,
        1.1920928955078125e-05,
        1.0
      ],
      "name": "Pumpkin_1"
    },
    {
      "mesh": 3,
      "name": "Pumpkin_1_Autumn_0"
    }
  ],
  "samplers": [
    {
      "magFilter": 9729,
      "minFilter": 9987,
      "wrapS": 10497,
      "wrapT": 10497
    }
  ],
  "scene": 0,
  "scenes": [
    {
      "name": "Sketchfab_Scene",
      "nodes": [
        0
      ]
    }
  ],
  "textures": [
    {
      "sampler": 0,
      "source": 0
    }
  ]
}
